# xmcd CD database file
#
# Track frame offsets:
#	150
#	21150
#	38810
#	54545
#	77903
#	95210
#	113820
#	131125
#	149903
#	169148
#	190013
#	213795
#
# Disc length: 3158 seconds
#
# Revision: 2
# Processed by: cddbd v1.5.2PL0 Copyright (c) Steve Scherf et al.
# Submitted via: CDex 1.70beta2
#
DISCID=b00c540c
DTITLE=堂島孝平 - トゥインクル
DYEAR=1997
DGENRE=Rock
TTITLE0=ロンサム パレード
TTITLE1=のらくら
TTITLE2=レイニーフェイス
TTITLE3=うらら
TTITLE4=ゾンビのカーニバル
TTITLE5=ジョニーはひとりぼっち
TTITLE6=白百合
TTITLE7=煙突そうじ
TTITLE8=サイドカー
TTITLE9=ずっと僕達は
TTITLE10=めぐり逢えたら
TTITLE11=きら星
EXTD=YEAR: 1997
EXTT0=
EXTT1=
EXTT2=
EXTT3=
EXTT4=
EXTT5=
EXTT6=
EXTT7=
EXTT8=
EXTT9=
EXTT10=
EXTT11=
PLAYORDER=
